<svg width="43" height="40" viewBox="0 0 43 40" fill="none" xmlns="http://www.w3.org/2000/svg">
<path d="M42.4016 9.32293C38.3114 6.45813 33.6827 4.4526 28.7953 3.4276C23.9079 2.40261 18.8634 2.37944 13.9668 3.3595L15.8134 5.80241C17.5984 5.5196 19.4028 5.3777 21.21 5.37804C27.7657 5.36754 34.1848 7.25099 39.6956 10.8019L30.0269 24.6101L31.7611 26.9048L42.42 11.6824V9.33542L42.4016 9.32293Z" fill="#FD0008"/>
<path d="M6.37515 0.0645142V1.9375L8.588 4.86559C5.54848 5.96933 2.66728 7.46793 0.0184732 9.32285L0 9.33534V11.682L19.6516 39.7478H22.7684L28.6268 31.381L33.9158 38.3794H35.8817V36.4416L8.38993 0.0645142H6.37515ZM26.8924 29.0863L21.21 37.2019L2.72446 10.8018C5.09432 9.27614 7.64409 8.04999 10.3155 7.15139L26.8924 29.0863Z" fill="#FD0008"/>
</svg>
