<svg width="43" height="38" viewBox="0 0 43 38" fill="none" xmlns="http://www.w3.org/2000/svg">
<path d="M42.4016 6.68133C36.1906 2.33262 28.7921 0 21.21 0C13.6279 0 6.2294 2.33262 0.0183877 6.68133L0 6.69382V9.04035L19.6516 37.1062H22.7684L42.42 9.04069V6.69382L42.4016 6.68133ZM33.81 5.13437L17.6152 29.4262L15.5562 26.4858L30.3506 3.97269C31.5238 4.29745 32.6786 4.68524 33.81 5.13437ZM23.8099 2.83479C25.0502 2.92799 26.2845 3.08876 27.5073 3.31638L13.8671 24.0731L11.5976 20.8317L23.8099 2.83479ZM9.91764 18.4332L7.96769 15.6483L16.3465 3.08008C17.7444 2.88123 19.1532 2.76852 20.5649 2.7426L9.91764 18.4332ZM12.5476 3.84458L6.28269 13.242L2.72489 8.1603C5.75045 6.21162 9.06584 4.75497 12.5476 3.84458ZM21.21 34.5603L19.3002 31.8328L36.3464 6.26346C37.4973 6.83267 38.6155 7.46595 39.6955 8.1603L21.21 34.5603Z" fill="#38B923"/>
</svg>
